<svg xmlns="http://www.w3.org/2000/svg" width="129" height="31" viewBox="0 0 129 31">
    <g fill="none" fill-rule="evenodd">
        <path fill="#fff" stroke="#fff" stroke-width=".5" d="M8.108 17.054c-1.443 0-2.51-.476-3.145-1.33l-1.13 5.384H1l3.134-14.8H6.89l-.183.854c.689-.67 1.572-1.146 2.821-1.146 2.531 0 4.405 2.108 4.405 4.822 0 2.984-2.208 6.216-5.826 6.216zm.56-8.39c-1.551 0-2.757 1.212-2.951 2.844-.215 1.751.83 2.919 2.326 2.919 1.702 0 2.983-1.503 2.983-3.286 0-1.514-.98-2.476-2.358-2.476zm9.309 2.541l-1.174 5.579H13.98L16.2 6.308h2.713l-.247 1.103c.872-1.06 1.927-1.384 2.972-1.384.506 0 1.066.119 1.55.314l-.904 2.713c-.409-.216-.99-.335-1.518-.335-1.314 0-2.402.79-2.79 2.486zm10.515-5.178c3.004 0 5.212 2.043 5.212 5.016 0 3.287-2.563 6.022-6.042 6.022-2.994 0-5.212-2.033-5.212-5.027 0-3.276 2.563-6.011 6.042-6.011zm.021 2.627c-1.69 0-2.972 1.438-2.972 3.21 0 1.514 1.034 2.574 2.509 2.574 1.702 0 2.994-1.449 2.994-3.211 0-1.513-1.034-2.573-2.53-2.573zm11.894-2.627c1.443 0 2.509.487 3.144 1.34l1.314-6.15h2.822L44.39 16.783h-2.768l.184-.854c-.7.67-1.584 1.135-2.822 1.135-2.52 0-4.405-2.108-4.405-4.822 0-2.984 2.208-6.216 5.827-6.216zm-.776 8.4c1.551 0 2.757-1.222 2.951-2.854.215-1.751-.83-2.919-2.326-2.919-1.702 0-2.983 1.503-2.983 3.297 0 1.503.98 2.476 2.358 2.476zm17.957-8.119l-1.303 6.14c-.722 3.417-2.994 4.606-5.557 4.606-2.488 0-4.286-1.33-4.286-3.805 0-.4.053-.822.15-1.276l1.196-5.665h2.832l-1.25 5.881c-.053.26-.075.487-.075.692 0 1.081.69 1.546 1.691 1.546 1.228 0 2.23-.8 2.574-2.476l1.185-5.643h2.843zm10.578 2.584l-2.292.94c-.7-.994-1.562-1.167-2.23-1.167-1.701 0-2.95 1.47-2.95 3.21 0 1.493 1.001 2.53 2.315 2.53.85 0 1.626-.335 2.261-1.016l1.842 1.74a5.515 5.515 0 0 1-4.21 1.903c-3.06 0-5.095-2.118-5.095-4.962 0-3.275 2.467-6.021 5.977-6.021 2.079 0 3.52 1.265 4.382 2.843zm9.806-2.584l-.539 2.508h-3.65l-.808 3.795c-.27 1.265.258 1.816 1.184 1.816.603 0 1.217-.227 1.82-.595l.991 2.227a6.004 6.004 0 0 1-3.328.995c-2.886 0-4.081-1.719-3.51-4.422l.807-3.816H68.99l.539-2.508h1.949l.667-3.113h2.833l-.668 3.113h3.662z"/>
        <path fill="#00CB83" stroke="#00CB83" stroke-width=".5" d="M85.28 6.027c2.175 0 3.51 1.46 3.51 3.514 0 .356-.032.745-.118 1.135l-1.303 6.108h-2.821l1.26-5.881c.054-.238.075-.465.075-.692 0-.865-.441-1.535-1.626-1.535-1.174 0-2.283.66-2.67 2.486l-1.185 5.622h-2.833l3.296-15.568h2.821l-1.26 5.979c.84-.876 1.842-1.168 2.854-1.168zM93.82 6.297l-2.218 10.476h-2.833l2.219-10.476zM93.142 1c1.012 0 1.798.8 1.798 1.816a1.769 1.769 0 0 1-1.798 1.795c-1.013 0-1.788-.779-1.788-1.795S92.129 1 93.142 1zM97.072 11.151l-1.174 5.579h-2.821l2.218-10.476h2.714l-.247 1.103c.872-1.06 1.927-1.384 2.972-1.384.506 0 1.066.119 1.55.313L101.38 9c-.41-.216-.99-.335-1.518-.335-1.314 0-2.402.79-2.79 2.486zM109.242 13.692l1.443 1.838c-1.131 1.005-2.477 1.48-4.265 1.48-3.145 0-4.943-1.945-4.943-4.594 0-2.648 1.734-6.443 5.998-6.443 2.628 0 4.448 1.665 4.448 4.27 0 .714-.183 1.643-.41 2.184h-7.247c.043 1.395.926 2.184 2.39 2.184.949 0 1.789-.281 2.586-.92zm-1.928-5.287c-1.508 0-2.326 1.017-2.725 2.098h4.62c.011-.065.011-.13.011-.195 0-1.254-.754-1.903-1.906-1.903zM118.503 6.027c1.443 0 2.51.487 3.145 1.34l1.314-6.15h2.821l-3.295 15.567h-2.653l.068-.854c-.7.67-1.583 1.135-2.821 1.135-2.52 0-4.405-2.108-4.405-4.822 0-2.984 2.208-6.216 5.826-6.216zm-.56 8.4c1.55 0 2.757-1.222 2.95-2.854.216-1.751-.828-2.919-2.325-2.919-1.702 0-2.983 1.503-2.983 3.297 0 1.503.98 2.476 2.358 2.476z"/>
        <path stroke="#00CB83" stroke-width="3.024" d="M121.327 15.919c-1.508 7.135.451 13.286 3.898 12.973 3.446-.314 1.863-5.114-5.062-6.976-6.765-1.82-20.518-2.037-42.323 1.556"/>
        <path fill="#00CB83" d="M78 21.916l-1.723.273-.754 3.352 3.123-.706z"/>
    </g>
</svg>
